<svg xmlns="http://www.w3.org/2000/svg" viewBox="0 0 120 120" width="120" height="120">
  <rect width="120" height="120" rx="18" fill="#1E1640"/>
  <g transform="translate(18,22)">
    <rect width="84" height="76" rx="8" fill="#2D1F5E" stroke="#4ECDC4" stroke-width="2"/>
    <line x1="10" y1="36" x2="74" y2="36" stroke="#3A2A6E" stroke-width="1.5"/>
    <circle cx="26" cy="56" r="12" fill="#3A2A6E" stroke="#B07CFF" stroke-width="1.5"/>
    <circle cx="26" cy="53" r="5" fill="#B07CFF"/>
    <path d="M18 64 Q26 58 34 64" fill="#B07CFF"/>
    <rect x="44" y="46" width="24" height="2.5" rx="1.25" fill="#4ECDC4"/>
    <rect x="44" y="52" width="20" height="2" rx="1" fill="#7C5CBF"/>
    <rect x="44" y="58" width="26" height="2" rx="1" fill="#7C5CBF" opacity="0.5"/>
    <rect x="44" y="64" width="16" height="2" rx="1" fill="#7C5CBF" opacity="0.5"/>
    <rect x="10" y="12" width="30" height="3" rx="1.5" fill="#FFB347"/>
    <rect x="10" y="19" width="50" height="2.5" rx="1.25" fill="#FFB347" opacity="0.5"/>
    <rect x="10" y="25" width="40" height="2.5" rx="1.25" fill="#FFB347" opacity="0.5"/>
    <g transform="translate(44,72)">
      <circle r="3.5" cx="4" cy="3.5" fill="#4ECDC4"/>
      <circle r="3.5" cx="14" cy="3.5" fill="#FF6B9D"/>
      <circle r="3.5" cx="24" cy="3.5" fill="#FFB347"/>
    </g>
  </g>
</svg>